<svg width="1823" height="775" viewBox="0 0 1823 775" fill="none" xmlns="http://www.w3.org/2000/svg">
<path d="M849.134 438.349V242.349H920.534C930.894 242.349 940.227 244.496 948.534 248.789C956.934 252.989 963.561 259.056 968.414 266.989C973.361 274.829 975.834 284.116 975.834 294.849C975.834 299.609 975.134 304.416 973.734 309.269C972.334 314.122 970.187 318.509 967.294 322.429C964.401 326.256 960.667 329.102 956.094 330.969C962.161 332.462 967.107 335.169 970.934 339.089C974.761 343.009 977.747 347.629 979.894 352.949C982.041 358.176 983.487 363.542 984.234 369.049C985.074 374.462 985.494 379.502 985.494 384.169C985.494 394.529 982.927 403.769 977.794 411.889C972.661 420.009 965.754 426.449 957.074 431.209C948.487 435.969 938.967 438.349 928.514 438.349H849.134ZM883.294 409.089H925.014C930.614 409.089 935.654 407.736 940.134 405.029C944.614 402.322 948.207 398.589 950.914 393.829C953.621 389.069 954.974 383.656 954.974 377.589C954.974 372.362 953.621 367.416 950.914 362.749C948.207 358.082 944.614 354.302 940.134 351.409C935.654 348.516 930.614 347.069 925.014 347.069H883.294V409.089ZM883.294 318.229H916.614C923.521 318.229 929.401 316.082 934.254 311.789C939.201 307.496 941.674 301.802 941.674 294.709C941.674 287.149 939.201 281.456 934.254 277.629C929.401 273.709 923.521 271.749 916.614 271.749H883.294V318.229ZM1008 438.349V242.349H1130.92V276.509H1042.16V316.269H1112.58V350.429H1042.16V404.189H1130.92V438.349H1008ZM1310.07 242.349V276.509H1250.15V438.349H1215.99V276.509H1156.07V242.349H1310.07ZM1486.44 242.349V276.509H1426.52V438.349H1392.36V276.509H1332.44V242.349H1486.44ZM1514.41 438.349V242.349H1637.33V276.509H1548.57V316.269H1618.99V350.429H1548.57V404.189H1637.33V438.349H1514.41ZM1668.9 438.349V242.349H1744.08C1754.72 242.349 1764.33 245.009 1772.92 250.329C1781.51 255.649 1788.32 262.789 1793.36 271.749C1798.4 280.616 1800.92 290.462 1800.92 301.289C1800.92 310.156 1799.29 318.322 1796.02 325.789C1792.85 333.162 1788.37 339.556 1782.58 344.969C1776.89 350.382 1770.31 354.489 1762.84 357.289L1809.74 438.349H1770.4L1725.04 360.369H1703.06V438.349H1668.9ZM1703.06 326.209H1740.16C1745.01 326.209 1749.45 324.996 1753.46 322.569C1757.47 320.142 1760.69 316.876 1763.12 312.769C1765.55 308.662 1766.76 304.089 1766.76 299.049C1766.76 293.916 1765.55 289.296 1763.12 285.189C1760.69 281.082 1757.47 277.816 1753.46 275.389C1749.45 272.962 1745.01 271.749 1740.16 271.749H1703.06V326.209Z" fill="#5C65CF"/>
<path d="M875.169 516.089C879.549 516.089 883.374 517.154 886.644 519.284C889.944 521.414 892.404 524.279 894.024 527.879C895.674 531.449 896.184 535.424 895.554 539.804C895.104 543.074 894.054 546.149 892.404 549.029C890.784 551.879 888.729 554.399 886.239 556.589C883.779 558.749 881.019 560.444 877.959 561.674C874.929 562.904 871.779 563.519 868.509 563.519C864.789 563.519 861.699 562.634 859.239 560.864C856.779 559.094 854.979 556.784 853.839 553.934L852.669 562.349H846.369L855.819 494.849H862.119L857.799 525.674C859.749 522.824 862.194 520.514 865.134 518.744C868.104 516.974 871.449 516.089 875.169 516.089ZM869.319 557.354C872.529 557.354 875.544 556.574 878.364 555.014C881.214 553.424 883.599 551.294 885.519 548.624C887.469 545.954 888.669 543.014 889.119 539.804C889.599 536.504 889.224 533.534 887.994 530.894C886.794 528.224 884.979 526.109 882.549 524.549C880.149 522.989 877.389 522.209 874.269 522.209C871.089 522.209 868.224 523.004 865.674 524.594C863.124 526.184 861.039 528.314 859.419 530.984C857.799 533.654 856.764 536.594 856.314 539.804C855.864 543.074 856.089 546.044 856.989 548.714C857.889 551.354 859.374 553.454 861.444 555.014C863.544 556.574 866.169 557.354 869.319 557.354ZM934.865 517.349H941.525L907.415 584.849H900.71L912.095 562.349L902.24 517.349H909.125L916.415 553.664L934.865 517.349ZM987.68 563.519C984.32 563.519 981.14 562.994 978.14 561.944C975.17 560.894 972.65 559.394 970.58 557.444C968.54 555.494 967.22 553.169 966.62 550.469L972.83 548.264C973.25 550.124 974.24 551.729 975.8 553.079C977.36 554.399 979.265 555.419 981.515 556.139C983.765 556.859 986.12 557.219 988.58 557.219C991.43 557.219 994.16 556.739 996.77 555.779C999.41 554.819 1001.62 553.484 1003.39 551.774C1005.19 550.034 1006.25 547.994 1006.58 545.654C1006.91 543.284 1006.39 541.334 1005.01 539.804C1003.63 538.274 1001.75 537.074 999.38 536.204C997.01 535.304 994.49 534.614 991.82 534.134C987.65 533.384 983.945 532.364 980.705 531.074C977.465 529.784 975.02 527.969 973.37 525.629C971.72 523.259 971.165 520.139 971.705 516.269C972.215 512.639 973.715 509.489 976.205 506.819C978.695 504.149 981.755 502.079 985.385 500.609C989.045 499.139 992.87 498.404 996.86 498.404C1000.13 498.404 1003.25 498.914 1006.22 499.934C1009.19 500.954 1011.73 502.439 1013.83 504.389C1015.96 506.339 1017.35 508.724 1018.01 511.544L1011.71 513.704C1011.32 511.814 1010.33 510.209 1008.74 508.889C1007.18 507.539 1005.28 506.519 1003.03 505.829C1000.78 505.109 998.42 504.749 995.96 504.749C993.11 504.719 990.365 505.199 987.725 506.189C985.115 507.149 982.925 508.499 981.155 510.239C979.385 511.949 978.335 513.959 978.005 516.269C977.645 518.969 978.08 521.054 979.31 522.524C980.54 523.964 982.325 525.044 984.665 525.764C987.035 526.484 989.72 527.129 992.72 527.699C996.65 528.389 1000.24 529.469 1003.48 530.939C1006.72 532.379 1009.22 534.314 1010.99 536.744C1012.76 539.144 1013.39 542.114 1012.88 545.654C1012.37 549.254 1010.87 552.404 1008.38 555.104C1005.92 557.774 1002.86 559.844 999.2 561.314C995.57 562.784 991.73 563.519 987.68 563.519ZM1021.45 562.349L1030.9 494.849H1037.2L1027.75 562.349H1021.45ZM1057.81 563.519C1053.67 563.519 1050.04 562.454 1046.92 560.324C1043.83 558.194 1041.52 555.344 1039.99 551.774C1038.49 548.174 1038.04 544.199 1038.64 539.849C1039.09 536.549 1040.09 533.474 1041.65 530.624C1043.24 527.744 1045.22 525.224 1047.59 523.064C1049.96 520.874 1052.59 519.164 1055.47 517.934C1058.38 516.704 1061.38 516.089 1064.47 516.089C1068.61 516.089 1072.22 517.154 1075.31 519.284C1078.43 521.414 1080.76 524.279 1082.29 527.879C1083.82 531.479 1084.27 535.469 1083.64 539.849C1083.19 543.119 1082.17 546.179 1080.58 549.029C1079.02 551.879 1077.05 554.399 1074.68 556.589C1072.31 558.749 1069.69 560.444 1066.81 561.674C1063.93 562.904 1060.93 563.519 1057.81 563.519ZM1058.66 557.219C1061.72 557.219 1064.59 556.424 1067.26 554.834C1069.93 553.214 1072.16 551.084 1073.96 548.444C1075.79 545.804 1076.92 542.939 1077.34 539.849C1077.79 536.699 1077.47 533.804 1076.39 531.164C1075.31 528.494 1073.66 526.364 1071.44 524.774C1069.25 523.184 1066.64 522.389 1063.61 522.389C1060.55 522.389 1057.69 523.199 1055.02 524.819C1052.35 526.409 1050.11 528.524 1048.31 531.164C1046.51 533.804 1045.39 536.699 1044.94 539.849C1044.49 543.089 1044.8 546.029 1045.88 548.669C1046.99 551.279 1048.66 553.364 1050.88 554.924C1053.13 556.454 1055.72 557.219 1058.66 557.219ZM1105.03 562.349H1098.55L1089.78 517.349H1095.94L1103.1 553.619L1120.33 517.349H1126.99L1134.06 553.619L1151.29 517.349H1157.5L1136.13 562.349H1129.6L1122.45 525.719L1105.03 562.349ZM1180.92 562.349L1189.74 499.349H1211.03C1214.09 499.349 1216.79 499.979 1219.13 501.239C1221.47 502.469 1223.21 504.284 1224.35 506.684C1225.52 509.054 1225.86 511.934 1225.38 515.324C1225.11 517.244 1224.51 519.074 1223.58 520.814C1222.65 522.554 1221.54 524.039 1220.25 525.269C1218.96 526.469 1217.64 527.249 1216.29 527.609C1218.09 528.089 1219.58 528.929 1220.75 530.129C1221.95 531.299 1222.86 532.694 1223.49 534.314C1224.15 535.904 1224.56 537.584 1224.71 539.354C1224.86 541.124 1224.81 542.864 1224.57 544.574C1224.09 548.114 1222.89 551.219 1220.97 553.889C1219.05 556.559 1216.7 558.644 1213.91 560.144C1211.12 561.614 1208.15 562.349 1205 562.349H1180.92ZM1187.99 556.724H1205.27C1207.46 556.724 1209.53 556.154 1211.48 555.014C1213.43 553.874 1215.08 552.314 1216.43 550.334C1217.78 548.354 1218.62 546.119 1218.95 543.629C1219.28 541.409 1219.04 539.324 1218.23 537.374C1217.45 535.394 1216.25 533.804 1214.63 532.604C1213.01 531.374 1211.1 530.759 1208.91 530.759H1191.63L1187.99 556.724ZM1192.44 525.224H1206.84C1209.81 525.224 1212.48 524.369 1214.85 522.659C1217.22 520.919 1218.63 518.459 1219.08 515.279C1219.56 511.799 1218.86 509.219 1216.97 507.539C1215.08 505.829 1212.65 504.974 1209.68 504.974H1195.28L1192.44 525.224ZM1230.95 545.114L1234.82 517.349H1241.12L1237.38 543.854C1237.05 546.314 1237.34 548.549 1238.24 550.559C1239.17 552.569 1240.55 554.174 1242.38 555.374C1244.24 556.574 1246.38 557.174 1248.81 557.174C1251.27 557.174 1253.6 556.574 1255.79 555.374C1257.98 554.174 1259.81 552.569 1261.28 550.559C1262.78 548.549 1263.69 546.314 1264.02 543.854L1267.71 517.349H1274.01L1267.76 562.349H1261.46L1262.27 556.049C1260.35 558.329 1258.02 560.144 1255.29 561.494C1252.59 562.844 1249.74 563.519 1246.74 563.519C1243.35 563.519 1240.38 562.694 1237.83 561.044C1235.28 559.394 1233.38 557.174 1232.12 554.384C1230.86 551.594 1230.47 548.504 1230.95 545.114ZM1276.72 562.349L1283.02 517.349H1289.32L1288.47 523.559C1290.39 521.279 1292.71 519.464 1295.44 518.114C1298.17 516.764 1301.04 516.089 1304.04 516.089C1305.78 516.089 1307.43 516.314 1308.99 516.764L1305.52 523.019C1304.35 522.629 1303.15 522.434 1301.92 522.434C1299.46 522.434 1297.14 523.034 1294.95 524.234C1292.79 525.434 1290.97 527.039 1289.5 529.049C1288.03 531.059 1287.12 533.294 1286.76 535.754L1283.02 562.349H1276.72ZM1351.56 534.494L1347.69 562.349H1341.39L1345.08 535.754C1345.44 533.294 1345.16 531.059 1344.23 529.049C1343.33 527.039 1341.95 525.434 1340.09 524.234C1338.26 523.034 1336.11 522.434 1333.65 522.434C1331.19 522.434 1328.87 523.034 1326.68 524.234C1324.52 525.434 1322.7 527.039 1321.23 529.049C1319.76 531.059 1318.85 533.294 1318.49 535.754L1314.75 562.349H1308.45L1314.75 517.349H1321.05L1320.2 523.559C1322.12 521.279 1324.44 519.464 1327.17 518.114C1329.9 516.764 1332.77 516.089 1335.77 516.089C1339.16 516.089 1342.13 516.914 1344.68 518.564C1347.23 520.214 1349.13 522.434 1350.39 525.224C1351.65 528.014 1352.04 531.104 1351.56 534.494ZM1378.33 562.349L1399.34 499.349H1403.93L1415.05 545.699L1439.12 499.349H1443.71L1447.13 562.349H1440.7L1438.13 514.154L1415.27 558.209H1411.27L1400.78 514.154L1384.72 562.349H1378.33ZM1473.97 563.519C1469.83 563.519 1466.2 562.454 1463.08 560.324C1459.99 558.194 1457.68 555.344 1456.15 551.774C1454.65 548.174 1454.2 544.199 1454.8 539.849C1455.25 536.549 1456.26 533.474 1457.82 530.624C1459.41 527.744 1461.39 525.224 1463.76 523.064C1466.13 520.874 1468.75 519.164 1471.63 517.934C1474.54 516.704 1477.54 516.089 1480.63 516.089C1483.96 516.089 1486.93 516.749 1489.54 518.069C1492.18 519.389 1494.34 521.234 1496.02 523.604C1497.7 525.974 1498.84 528.749 1499.44 531.929C1500.04 535.109 1499.98 538.544 1499.26 542.234H1461.15C1461.09 545.084 1461.63 547.634 1462.77 549.884C1463.91 552.134 1465.51 553.919 1467.58 555.239C1469.65 556.529 1472.07 557.189 1474.83 557.219C1477.83 557.219 1480.65 556.439 1483.29 554.879C1485.96 553.319 1488.21 551.174 1490.04 548.444L1496.2 549.929C1493.83 553.919 1490.65 557.189 1486.66 559.739C1482.7 562.259 1478.47 563.519 1473.97 563.519ZM1461.69 537.149H1493.64C1493.82 534.359 1493.32 531.809 1492.15 529.499C1491.01 527.159 1489.38 525.299 1487.25 523.919C1485.12 522.509 1482.66 521.804 1479.87 521.804C1477.05 521.804 1474.39 522.494 1471.9 523.874C1469.41 525.224 1467.27 527.069 1465.47 529.409C1463.67 531.719 1462.41 534.299 1461.69 537.149ZM1531.75 523.649H1520.99L1515.5 562.349H1509.2L1514.69 523.649H1506.55L1507.4 517.349H1515.55L1517.48 503.219H1523.78L1521.85 517.349H1532.6L1531.75 523.649ZM1577.49 534.494L1573.62 562.349H1567.32L1571.01 535.754C1571.37 533.294 1571.08 531.059 1570.15 529.049C1569.25 527.039 1567.87 525.434 1566.01 524.234C1564.18 523.034 1562.04 522.434 1559.58 522.434C1557.12 522.434 1554.79 523.034 1552.6 524.234C1550.44 525.434 1548.63 527.039 1547.16 529.049C1545.69 531.059 1544.77 533.294 1544.41 535.754L1540.68 562.349H1534.38L1543.83 494.849H1550.13L1546.12 523.559C1548.04 521.279 1550.37 519.464 1553.1 518.114C1555.83 516.764 1558.69 516.089 1561.69 516.089C1565.08 516.089 1568.05 516.914 1570.6 518.564C1573.15 520.214 1575.06 522.434 1576.32 525.224C1577.58 528.014 1577.97 531.104 1577.49 534.494ZM1601.32 563.519C1597.18 563.519 1593.55 562.454 1590.43 560.324C1587.34 558.194 1585.03 555.344 1583.5 551.774C1582 548.174 1581.55 544.199 1582.15 539.849C1582.6 536.549 1583.61 533.474 1585.17 530.624C1586.76 527.744 1588.74 525.224 1591.11 523.064C1593.48 520.874 1596.1 519.164 1598.98 517.934C1601.89 516.704 1604.89 516.089 1607.98 516.089C1612.12 516.089 1615.74 517.154 1618.83 519.284C1621.95 521.414 1624.27 524.279 1625.8 527.879C1627.33 531.479 1627.78 535.469 1627.15 539.849C1626.7 543.119 1625.68 546.179 1624.09 549.029C1622.53 551.879 1620.57 554.399 1618.2 556.589C1615.83 558.749 1613.2 560.444 1610.32 561.674C1607.44 562.904 1604.44 563.519 1601.32 563.519ZM1602.18 557.219C1605.24 557.219 1608.1 556.424 1610.77 554.834C1613.44 553.214 1615.68 551.084 1617.48 548.444C1619.31 545.804 1620.43 542.939 1620.85 539.849C1621.3 536.699 1620.99 533.804 1619.91 531.164C1618.83 528.494 1617.18 526.364 1614.96 524.774C1612.77 523.184 1610.16 522.389 1607.13 522.389C1604.07 522.389 1601.2 523.199 1598.53 524.819C1595.86 526.409 1593.63 528.524 1591.83 531.164C1590.03 533.804 1588.9 536.699 1588.45 539.849C1588 543.089 1588.32 546.029 1589.4 548.669C1590.51 551.279 1592.17 553.364 1594.39 554.924C1596.64 556.454 1599.24 557.219 1602.18 557.219ZM1677.67 494.849H1683.97L1674.52 562.349H1668.22L1669.39 553.934C1667.44 556.814 1664.98 559.139 1662.01 560.909C1659.04 562.649 1655.7 563.519 1651.98 563.519C1648.71 563.519 1645.72 562.904 1643.02 561.674C1640.35 560.444 1638.09 558.749 1636.23 556.589C1634.37 554.399 1633.02 551.879 1632.18 549.029C1631.37 546.179 1631.19 543.119 1631.64 539.849C1632.09 536.579 1633.12 533.519 1634.74 530.669C1636.39 527.789 1638.45 525.269 1640.91 523.109C1643.4 520.919 1646.16 519.209 1649.19 517.979C1652.22 516.749 1655.37 516.134 1658.64 516.134C1662.36 516.134 1665.45 517.019 1667.91 518.789C1670.4 520.529 1672.21 522.824 1673.35 525.674L1677.67 494.849ZM1652.88 557.399C1656.09 557.399 1658.95 556.619 1661.47 555.059C1664.02 553.469 1666.11 551.339 1667.73 548.669C1669.35 545.999 1670.38 543.059 1670.83 539.849C1671.31 536.549 1671.1 533.579 1670.2 530.939C1669.3 528.269 1667.8 526.154 1665.7 524.594C1663.63 523.034 1661.01 522.254 1657.83 522.254C1654.65 522.254 1651.63 523.049 1648.78 524.639C1645.96 526.199 1643.58 528.314 1641.63 530.984C1639.71 533.654 1638.52 536.609 1638.07 539.849C1637.62 543.119 1638 546.089 1639.2 548.759C1640.4 551.399 1642.2 553.499 1644.6 555.059C1647.03 556.619 1649.79 557.399 1652.88 557.399Z" fill="#5C65CF"/>
<g filter="url(#filter0_d_561_47)">
<path d="M738.194 383.46C738.194 595.265 573.839 766.967 371.097 766.967C168.355 766.967 4 595.265 4 383.46C4 173.677 165.232 3.23457 365.302 0V38.3557C185.507 41.5862 40.7097 194.858 40.7097 383.46C40.7097 444.177 55.7172 501.233 82.068 550.8L50.2871 569.968L56.0833 580.457L87.873 561.283C145.679 661.551 250.891 728.616 371.097 728.616C491.304 728.616 596.518 661.549 654.323 561.279L686.118 580.457L691.915 569.968L660.128 550.796C686.478 501.231 701.484 444.176 701.484 383.46C701.484 194.859 556.688 41.5873 376.894 38.3557V0C576.963 3.23558 738.194 173.677 738.194 383.46Z" fill="#5C65CF"/>
<path d="M367.234 734.672C448.379 734.672 600.048 698.339 571.069 544.937C535.325 617.601 462.871 572.186 484.124 512.641C517.985 417.774 531.821 360.795 421.331 293.639C484.119 392.543 307.342 412.728 353.709 293.639C379.643 227.03 365.628 188.469 339.221 151.338C339.22 196.492 315.38 225.337 292.953 252.477C262.745 289.026 235.098 322.479 271.693 388.506C293.71 428.232 270.655 452.088 253.24 452.088C237.672 452.088 235.451 441.656 232.655 428.524C230.09 416.477 227.041 402.157 212.758 391.534C212.758 430.474 199.97 463.038 188.099 493.263C177.818 519.441 168.227 543.865 168.228 569.158C168.229 665.92 251.963 727.072 348.72 734.01C287.89 728.557 235.853 689.677 235.851 628.72C235.851 612.529 242.005 596.894 248.602 580.137C256.22 560.789 264.426 539.943 264.426 515.016C273.592 521.816 275.548 530.983 277.194 538.695C278.988 547.1 280.413 553.779 290.403 553.779C301.578 553.779 316.372 538.508 302.244 513.077C278.761 470.811 296.503 449.396 315.886 425.999C330.279 408.627 345.577 390.163 345.578 361.257C362.523 385.027 371.516 409.71 354.874 452.349C325.121 528.582 438.559 515.662 398.268 452.349C469.169 495.338 460.291 531.813 438.563 592.541C424.924 630.657 471.418 659.73 494.355 613.215C512.754 710.378 417.663 734.172 365.215 734.663C365.887 734.668 366.56 734.672 367.234 734.672Z" fill="#5C65CF"/>
</g>
<defs>
<filter id="filter0_d_561_47" x="0" y="0" width="742.194" height="774.967" filterUnits="userSpaceOnUse" color-interpolation-filters="sRGB">
<feFlood flood-opacity="0" result="BackgroundImageFix"/>
<feColorMatrix in="SourceAlpha" type="matrix" values="0 0 0 0 0 0 0 0 0 0 0 0 0 0 0 0 0 0 127 0" result="hardAlpha"/>
<feOffset dy="4"/>
<feGaussianBlur stdDeviation="2"/>
<feComposite in2="hardAlpha" operator="out"/>
<feColorMatrix type="matrix" values="0 0 0 0 0 0 0 0 0 0 0 0 0 0 0 0 0 0 0.25 0"/>
<feBlend mode="normal" in2="BackgroundImageFix" result="effect1_dropShadow_561_47"/>
<feBlend mode="normal" in="SourceGraphic" in2="effect1_dropShadow_561_47" result="shape"/>
</filter>
</defs>
</svg>
